<svg width="402" height="52" viewBox="0 0 402 52" fill="none" xmlns="http://www.w3.org/2000/svg">
<path d="M208.25 24.6206C210.847 25.7945 212.874 27.327 214.329 29.2182C215.785 31.1094 216.512 33.2941 216.512 35.7723C216.512 40.6416 214.866 44.2175 211.575 46.5C208.283 48.7825 204.174 49.9238 199.248 49.9238H182.79V1.92601H197.3C202.54 1.92601 206.66 2.95857 209.66 5.02369C212.661 7.08881 214.161 10.0778 214.161 13.9907C214.161 16.3819 213.646 18.4796 212.616 20.2839C211.586 22.0881 210.131 23.5337 208.25 24.6206ZM192.53 21.5555H198.442C200.233 21.5555 201.622 21.0229 202.607 19.9578C203.592 18.8926 204.085 17.5775 204.085 16.0123C204.085 14.4037 203.525 13.1755 202.405 12.3277C201.286 11.4799 199.741 11.056 197.77 11.056H192.53V21.5555ZM198.778 41.1198C201.062 41.1198 202.909 40.6742 204.32 39.7829C205.731 38.8917 206.436 37.5548 206.436 35.7723C206.436 32.3811 203.659 30.6855 198.106 30.6855H192.53V41.1198H198.778ZM232.634 25.9901C232.634 21.6425 233.765 17.5775 236.027 13.795C238.288 10.0126 241.356 7.00186 245.23 4.76283C249.104 2.52381 253.302 1.4043 257.825 1.4043C262.349 1.4043 266.547 2.52381 270.421 4.76283C274.295 7.00186 277.385 10.0126 279.691 13.795C281.998 17.5775 283.151 21.6425 283.151 25.9901C283.151 30.4247 281.998 34.5114 279.691 38.2504C277.385 41.9894 274.295 44.9566 270.421 47.1522C266.547 49.3477 262.349 50.4455 257.825 50.4455C253.258 50.4455 249.048 49.3477 245.196 47.1522C241.345 44.9566 238.288 41.9894 236.027 38.2504C233.765 34.5114 232.634 30.4247 232.634 25.9901ZM242.711 25.9901C242.711 28.7726 243.394 31.3377 244.76 33.6854C246.126 36.0331 247.984 37.8917 250.335 39.2612C252.687 40.6307 255.295 41.3155 258.161 41.3155C260.938 41.3155 263.468 40.6307 265.752 39.2612C268.036 37.8917 269.828 36.044 271.126 33.718C272.425 31.392 273.074 28.8161 273.074 25.9901C273.074 23.1207 272.403 20.5121 271.059 18.1644C269.716 15.8167 267.891 13.9581 265.584 12.5886C263.278 11.2191 260.714 10.5343 257.893 10.5343C255.071 10.5343 252.507 11.2191 250.201 12.5886C247.895 13.9581 246.07 15.8167 244.726 18.1644C243.383 20.5121 242.711 23.1207 242.711 25.9901ZM302.296 1.92601H317.075C323.389 1.92601 328.584 3.11073 332.66 5.48019C336.735 7.84965 339.702 10.9147 341.56 14.6754C343.419 18.4361 344.348 22.4685 344.348 26.7727C344.348 31.3812 343.229 35.4462 340.989 38.9678C338.75 42.4893 335.738 45.1957 331.954 47.0869C328.17 48.9782 324.016 49.9238 319.493 49.9238H302.296V1.92601ZM317.814 40.7938C322.874 40.7938 326.882 39.533 329.838 37.0113C332.794 34.4897 334.272 30.8594 334.272 26.1205C334.272 22.2946 333.454 19.2513 331.82 16.9905C330.185 14.7298 328.282 13.1646 326.11 12.2951C323.938 11.4256 321.889 10.9908 319.963 10.9908H312.036V40.7938H317.814ZM401.246 1.92601L382.706 34.9897V49.9238H372.965V34.9897L354.76 1.92601H366.785L378.138 24.0989L389.222 1.92601H401.246Z" fill="#111111"/>
<path d="M33.5709 1.87024V10.899H9.69679V21.0241H30.8291V30.0528H9.69679V40.3069H34.5072V49.3356H0V1.87024H33.5709ZM98.2384 1.87024V51.2703H97.9709L63.5307 21.282L63.7313 49.3356H53.9007V0H54.302L88.6754 30.4398L88.4748 1.87024H98.2384ZM160.231 44.5633C159.473 45.3372 158.124 46.1433 156.185 46.9817C154.246 47.8201 152.106 48.508 149.765 49.0454C147.425 49.5828 145.296 49.8515 143.379 49.8515C138.162 49.8515 133.582 48.8734 129.636 46.9172C125.69 44.961 122.648 42.2524 120.508 38.7913C118.368 35.3303 117.298 31.3856 117.298 26.9572C117.298 21.411 118.435 16.7139 120.708 12.866C122.982 9.01799 126.036 6.1374 129.87 4.22416C133.704 2.31093 137.94 1.35431 142.576 1.35431C145.563 1.35431 148.372 1.67677 151.002 2.32167C153.633 2.96659 155.951 3.80497 157.957 4.83682L154.814 13.5431C153.521 12.8552 151.749 12.221 149.498 11.6406C147.246 11.0602 145.363 10.77 143.847 10.77C138.497 10.77 134.406 12.0598 131.575 14.6395C128.744 17.2191 127.329 21.0456 127.329 26.1189C127.329 29.0424 128.02 31.5898 129.402 33.761C130.784 35.9322 132.712 37.5983 135.187 38.7591C137.661 39.9199 140.481 40.5004 143.646 40.5004C146.678 40.5004 148.929 40.0919 150.4 39.275V33.5353H141.907V24.5066H160.231V44.5633Z" fill="#EB51C2"/>
</svg>
