<svg width="1200" height="630" viewBox="0 0 1200 630" fill="none" xmlns="http://www.w3.org/2000/svg">
<rect width="1200" height="630" fill="white"/>
<path d="M607.25 313.621C609.847 314.794 611.874 316.327 613.329 318.218C614.785 320.109 615.512 322.294 615.512 324.772C615.512 329.642 613.866 333.218 610.575 335.5C607.283 337.783 603.174 338.924 598.248 338.924H581.79V290.926H596.3C601.54 290.926 605.66 291.959 608.66 294.024C611.661 296.089 613.161 299.078 613.161 302.991C613.161 305.382 612.646 307.48 611.616 309.284C610.586 311.088 609.131 312.534 607.25 313.621ZM591.53 310.556H597.442C599.233 310.556 600.622 310.023 601.607 308.958C602.592 307.893 603.085 306.577 603.085 305.012C603.085 303.404 602.525 302.175 601.405 301.328C600.286 300.48 598.741 300.056 596.77 300.056H591.53V310.556ZM597.778 330.12C600.062 330.12 601.909 329.674 603.32 328.783C604.731 327.892 605.436 326.555 605.436 324.772C605.436 321.381 602.659 319.686 597.106 319.686H591.53V330.12H597.778ZM631.634 314.99C631.634 310.642 632.765 306.577 635.027 302.795C637.288 299.013 640.356 296.002 644.23 293.763C648.104 291.524 652.302 290.404 656.825 290.404C661.349 290.404 665.547 291.524 669.421 293.763C673.295 296.002 676.385 299.013 678.691 302.795C680.998 306.577 682.151 310.642 682.151 314.99C682.151 319.425 680.998 323.511 678.691 327.25C676.385 330.989 673.295 333.957 669.421 336.152C665.547 338.348 661.349 339.445 656.825 339.445C652.258 339.445 648.048 338.348 644.196 336.152C640.345 333.957 637.288 330.989 635.027 327.25C632.765 323.511 631.634 319.425 631.634 314.99ZM641.711 314.99C641.711 317.773 642.394 320.338 643.76 322.685C645.126 325.033 646.984 326.892 649.335 328.261C651.687 329.631 654.295 330.315 657.161 330.315C659.938 330.315 662.468 329.631 664.752 328.261C667.036 326.892 668.828 325.044 670.126 322.718C671.425 320.392 672.074 317.816 672.074 314.99C672.074 312.121 671.403 309.512 670.059 307.164C668.716 304.817 666.891 302.958 664.584 301.589C662.278 300.219 659.714 299.534 656.893 299.534C654.071 299.534 651.507 300.219 649.201 301.589C646.895 302.958 645.07 304.817 643.726 307.164C642.383 309.512 641.711 312.121 641.711 314.99ZM701.296 290.926H716.075C722.389 290.926 727.584 292.111 731.66 294.48C735.735 296.85 738.702 299.915 740.56 303.675C742.419 307.436 743.348 311.469 743.348 315.773C743.348 320.381 742.229 324.446 739.989 327.968C737.75 331.489 734.738 334.196 730.954 336.087C727.17 337.978 723.016 338.924 718.493 338.924H701.296V290.926ZM716.814 329.794C721.874 329.794 725.882 328.533 728.838 326.011C731.794 323.49 733.272 319.859 733.272 315.121C733.272 311.295 732.454 308.251 730.82 305.991C729.185 303.73 727.282 302.165 725.11 301.295C722.938 300.426 720.889 299.991 718.963 299.991H711.036V329.794H716.814ZM800.246 290.926L781.706 323.99V338.924H771.965V323.99L753.76 290.926H765.785L777.138 313.099L788.222 290.926H800.246Z" fill="#111111"/>
<path d="M432.571 290.87V299.899H408.697V310.024H429.829V319.053H408.697V329.307H433.507V338.336H399V290.87H432.571ZM497.238 290.87V340.27H496.971L462.531 310.282L462.731 338.336H452.901V289H453.302L487.675 319.44L487.475 290.87H497.238ZM559.231 333.563C558.473 334.337 557.124 335.143 555.185 335.982C553.246 336.82 551.106 337.508 548.765 338.045C546.425 338.583 544.296 338.852 542.379 338.852C537.162 338.852 532.582 337.873 528.636 335.917C524.69 333.961 521.648 331.252 519.508 327.791C517.368 324.33 516.298 320.386 516.298 315.957C516.298 310.411 517.435 305.714 519.708 301.866C521.982 298.018 525.036 295.137 528.87 293.224C532.704 291.311 536.94 290.354 541.576 290.354C544.563 290.354 547.372 290.677 550.002 291.322C552.633 291.967 554.951 292.805 556.957 293.837L553.814 302.543C552.521 301.855 550.749 301.221 548.498 300.641C546.246 300.06 544.363 299.77 542.847 299.77C537.497 299.77 533.406 301.06 530.575 303.639C527.744 306.219 526.329 310.046 526.329 315.119C526.329 318.042 527.02 320.59 528.402 322.761C529.784 324.932 531.712 326.598 534.187 327.759C536.661 328.92 539.481 329.5 542.646 329.5C545.678 329.5 547.929 329.092 549.4 328.275V322.535H540.907V313.507H559.231V333.563Z" fill="#EB51C2"/>
</svg>
